<?xml version="1.0" encoding="utf-8"?>
<!-- Generator: Adobe Illustrator 27.5.0, SVG Export Plug-In . SVG Version: 6.00 Build 0)  -->
<svg version="1.1" id="Layer_1" xmlns="http://www.w3.org/2000/svg" xmlns:xlink="http://www.w3.org/1999/xlink" x="0px" y="0px"
	 viewBox="0 0 450 450" style="enable-background:new 0 0 450 450;" xml:space="preserve">
<g>
	<g>
		<g>
			<path style="fill:#3F90A8;" d="M77.244,344.179c0,0-18.764,14.982-1.215,33.727l84.602-24.918L77.244,344.179z"/>
			<polygon style="fill:#3F90A8;" points="365.31,351.057 215.921,396.731 76.023,377.914 85.225,374.983 226.822,329.584 
				226.924,329.584 293.484,343.499 358.472,350.337 			"/>
			<path style="fill:#F4F1E5;" d="M363.768,324.116l-7.661,3.805l7.61-2.725l-0.052,2.211l-28.792,12.288l28.74-11.208l-0.411,11.26
				l-11.054,4.833l11.002-2.931l-0.257,7.147l-4.421,1.542l-142.088,43.103l-0.359-0.051l-130.8-18.407l-6.838-0.977
				c-3.599-8.843-2.93-18.149,1.028-27.815l147.406-16.607h0.102l130.005-7.833l6.941-0.771L363.768,324.116z"/>
			<polygon style="fill:#F8DCC2;" points="79.393,346.166 232.565,312.134 363.883,320.996 219.289,364.967 			"/>
			<polygon style="fill:#F8DCC2;" points="79.393,346.166 232.565,312.134 363.883,320.996 217.252,364.693 			"/>
			<path style="fill:#3F90A8;" d="M77.244,344.179l142.707-30.332c6.915-2.446,14.228-3.566,21.558-3.301l124.905,7.948
				L217.14,362.979L77.244,344.179z"/>
			<polygon style="fill:#F8DCC2;" points="365.31,351.057 215.921,396.731 216.025,393.389 217.156,363.003 293.484,343.499 
				356.929,321.751 363.87,320.98 363.768,324.116 356.107,327.921 363.716,325.196 363.664,327.407 334.872,339.694 
				363.613,328.486 363.202,339.746 352.148,344.579 363.15,341.648 362.893,348.795 358.472,350.337 			"/>
		</g>
		<g>
			<path style="fill:#EC925D;" d="M70.345,304.658c0,0-18.763,14.982-1.215,33.727l84.601-24.918L70.345,304.658z"/>
			<polygon style="fill:#EC925D;" points="358.411,311.536 209.023,357.21 69.124,338.392 78.327,335.462 219.923,290.063 
				220.025,290.063 286.585,303.979 351.573,310.816 			"/>
			<path style="fill:#F4F1E5;" d="M356.869,284.595l-7.661,3.805l7.61-2.725l-0.052,2.211l-28.792,12.288l28.741-11.208
				l-0.411,11.26l-11.054,4.833l11.002-2.931l-0.257,7.147l-4.421,1.542L209.486,353.92l-0.36-0.051L78.327,335.462l-6.839-0.977
				c-3.599-8.844-2.93-18.149,1.028-27.815l147.406-16.607h0.102l130.005-7.833l6.941-0.771L356.869,284.595z"/>
			<polygon style="fill:#F8DCC2;" points="72.494,306.645 225.666,272.613 356.985,281.475 212.39,325.446 			"/>
			<polygon style="fill:#F8DCC2;" points="72.494,306.645 225.666,272.613 356.985,281.475 210.354,325.172 			"/>
			<path style="fill:#EC925D;" d="M70.345,304.658l142.708-30.332c6.914-2.446,14.228-3.565,21.557-3.301l124.905,7.948
				l-149.273,44.484L70.345,304.658z"/>
			<polygon style="fill:#F8DCC2;" points="358.411,311.536 209.023,357.21 209.126,353.868 210.257,323.482 286.585,303.979 
				350.03,282.23 356.971,281.459 356.869,284.595 349.208,288.4 356.818,285.675 356.766,287.886 327.973,300.174 356.714,288.966 
				356.303,300.226 345.249,305.058 356.251,302.128 355.994,309.274 351.573,310.816 			"/>
		</g>
		<g>
			<path style="fill:#A64C49;" d="M91.773,272.018c0,0-18.763,14.982-1.215,33.728l84.601-24.918L91.773,272.018z"/>
			<polygon style="fill:#A64C49;" points="379.84,278.896 230.452,324.57 90.553,305.752 99.756,302.821 241.352,257.422 
				241.455,257.422 308.013,271.338 373.002,278.176 			"/>
			<path style="fill:#F4F1E5;" d="M378.298,251.955l-7.661,3.805l7.61-2.725l-0.051,2.21l-28.793,12.288l28.741-11.208l-0.411,11.26
				l-11.054,4.833l11.002-2.931l-0.258,7.147l-4.421,1.542l-142.087,43.103l-0.36-0.051L99.756,302.821l-6.838-0.977
				c-3.599-8.843-2.93-18.15,1.028-27.815l147.406-16.607h0.102l130.005-7.832l6.941-0.771L378.298,251.955z"/>
			<polygon style="fill:#F8DCC2;" points="93.923,274.005 247.095,239.973 378.414,248.835 233.82,292.806 			"/>
			<polygon style="fill:#F8DCC2;" points="93.923,274.005 247.095,239.973 378.414,248.835 231.782,292.532 			"/>
			<path style="fill:#A64C49;" d="M91.773,272.018l142.708-30.332c6.915-2.445,14.228-3.565,21.557-3.3l124.906,7.949
				L231.67,290.818L91.773,272.018z"/>
			<polygon style="fill:#F8DCC2;" points="379.84,278.896 230.452,324.57 230.555,321.228 231.687,290.842 308.013,271.338 
				371.46,249.59 378.4,248.819 378.298,251.955 370.637,255.759 378.247,253.035 378.195,255.245 349.402,267.534 378.143,256.325 
				377.732,267.585 366.678,272.418 377.681,269.487 377.423,276.634 373.002,278.176 			"/>
		</g>
		<g>
			<path style="fill:#3F90A8;" d="M382.769,264.716l-11.15-2.481l-78.576-17.605l5.731-0.875l8.44-1.332l10.334-1.657l53-8.333
				l6.958-1.073C377.507,231.361,397.923,244.006,382.769,264.716z"/>
			<polygon style="fill:#3F90A8;" points="382.769,264.716 244.566,286.428 89.999,257.849 157.763,243.131 163.424,241.745 
				194.496,228.752 225.656,221.1 258.363,230.781 303.107,241.183 306.798,242.285 307.215,242.424 307.735,242.56 
				373.461,261.964 			"/>
			<path style="fill:#F8DCC2;" d="M101.399,249.635l-11.55-3.486l-1.748-11.124l29.886,7.671l-30.054-8.737l-0.346-2.208
				l7.896,1.838l-8.063-2.899l290.107,0.677c5.492,20.645,4.973,20.551,2.425,29.725l-135.989,21.45L91.259,255.112l-1.116-7.094
				L101.399,249.635z"/>
			<polygon style="fill:#F8DCC2;" points="375.632,233.596 219.991,211.644 86.938,227.617 237.426,255.323 			"/>
			<polygon style="fill:#F8DCC2;" points="377.826,232.489 377.527,231.366 219.991,211.644 86.938,227.617 239.631,255.016 			"/>
			<path style="fill:#3F90A8;" d="M377.527,231.366l-144.809-19.529c-7.157-1.601-14.552-1.838-21.797-0.7L84.351,225.713
				l154.971,27.379L377.527,231.366z"/>
			<path style="fill:#F8DCC2;" d="M382.769,264.716l-138.203,21.712l-0.602-3.888l-4.333-27.524l-0.326-1.943l63.802-11.89
				l66.976-8.835l7.424-0.987C377.507,231.361,397.923,244.006,382.769,264.716z"/>
		</g>
	</g>
	<g>
		<path style="fill:#3B5765;" d="M351.676,313.318c-2.974,2.108-4.733,3.965-12.369,1.866c-4.166-1.145-8.848-4.062-11.628-5.761
			c-1.553-0.967-3.264-1.645-5.055-2.068c-0.532-0.13-1.035-0.237-1.486-0.376c-0.057-0.021-0.114-0.042-0.2-0.086
			c-6.184-1.695-6.472-3.759-6.698-4.55c-0.268-0.923,1.038-16.293,1.038-16.293l17.115,3.722c0,0,2.163,3.785,5.604,7.216
			c4.269,4.257,11.01,9.245,12.883,10.654C353.74,309.792,353.317,312.179,351.676,313.318z"/>
		<path style="opacity:0.28;fill:#3B5765;" d="M334.136,292.406c0,0,2.067,3.682-12.751,4.742c-9.195,0.657-2.298,8.784-0.446,9.745
			c-6.184-1.695-6.472-3.759-6.698-4.55c-0.268-0.923,1.038-16.293,1.038-16.293l17.115,3.722
			C332.394,289.772,332.922,290.829,334.136,292.406z"/>
		<path style="fill:#EC925D;" d="M336.408,230.108c-0.273,6.778-4.61,8.85-7.599,14.055c-2.051-0.579-5.145-0.982-8.953-1.277
			c-3.557-0.296-7.77-0.461-12.315-0.588c-23.266-0.744-55.72-0.39-60.52-6.221c-1.296-1.559-7.015-24.12-7.927-25.75
			c-1.932-3.472-2.953-7.048-3.047-10.337c-0.146-5.968,2.666-11.013,8.393-13.032c3.25-1.18,7.483-1.324,12.577-0.057
			c2.045,0.775,6.059-1.806,8.202-1.154c1.855,0.572,3.685,1.176,5.518,1.807c4.474,1.478,8.878,3.076,13.205,4.738
			c17.07,6.508,33.945,14.719,44.576,20.549C335.079,217.185,336.673,223.495,336.408,230.108z"/>
		<path style="fill:#EC925D;" d="M336.298,225.389c0.877,22.361-3.388,58.837-2.373,65.574c-2.393,4.046-19.121,5.08-19.604,1.807
			c-0.338-2.673-0.33-2.762-0.374-3.148c-1.788-11.57-8.41-48.204-9.37-51.982c-0.009-0.083,0.03-0.227,0.125-0.378
			c0.776-1.542,6.098-5.893,11.891-10.297C324.189,221.209,336.229,223.639,336.298,225.389z"/>
		<path style="opacity:0.4;fill:#EC925D;" d="M320.65,249.154c-3.7,12.396-6.889,37.89-5.992,46.29
			c-1.788-11.57-7.711-48.359-8.67-52.137c-0.009-0.083,1.458-0.858,1.552-1.009c-23.266-0.744-55.72-0.39-60.52-6.221
			c-1.296-1.559-7.015-24.12-7.927-25.75c-1.932-3.472-2.953-7.048-3.047-10.337l34.69-12.437c4.474,1.478,8.878,3.076,13.205,4.738
			c0,0,1.772,0.332-1.215,5.381c-1.207,2.039,2.352,7.184,4.362,8.439c10.985,6.86,22.984,14.239,29.503,20.853
			C321.441,231.883,322.847,241.794,320.65,249.154z"/>
		<path style="fill:#F8C650;" d="M288.92,124.695c-0.294,1.712-6.217,26.61-8.672,36.906c0,0.024,0,0.049,0,0.049
			c-0.614,2.617-1.014,4.28-1.014,4.353c-5.31-0.685-15.369-3.277-19.585-8.535c-1.468-1.835-2.215-4.011-1.761-6.53
			c0.774-4.304,4.242-14.258,5.337-18.318c1.521-5.674,3.495-10.346,5.817-13.892c2.588-4.035,5.63-6.604,8.992-7.533
			c7.952-2.177,9.979,2.25,11.474,6.236C290.281,119.559,289.107,123.741,288.92,124.695z"/>
		<path style="fill:#FCC7A9;" d="M304.055,188.795c0,0,4.007,4.198,6.106,4.961c2.099,0.763,6.106-0.572,10.304,0
			c4.198,0.572,5.366,6.293,6.106,7.633c0.74,1.339,0.93,5.503-3.351,5.709c-4.282,0.206-9.105-6.311-9.216-4.001
			c1.622,2.855,2.971,4.535,0.928,4.588c-2.044,0.054-5.225-5.913-8.242-6.843c-3.017-0.93-5.306-2.019-6.069-3.885
			C299.857,195.091,304.055,188.795,304.055,188.795z"/>
		<path style="fill:#F8C650;" d="M297.138,198.042c0,0-1.094-0.636-2.908-1.663c-0.027,0-0.053,0-0.08-0.049
			c-7.898-4.475-28.763-16.387-31.058-17.707c-2.801-1.614-7.151-7.264-8.511-9.269c0.32-5.16,2.268-9.27,5.07-11.886
			c5.363-4.965,13.874-4.574,20.598,4.182c0.027,0.073,26.015,27.221,26.949,27.955
			C308.211,190.412,300.976,199.744,297.138,198.042z"/>
		<path style="fill:#F8C650;" d="M257.322,102.701l-2.483-3.513c0,0,3.303-2.758,7.372-1.038L257.322,102.701z"/>
		<path style="fill:#F8C650;" d="M254.839,99.188c0,0,3.303-2.758,7.372-1.038c4.07,1.719-4.889,4.551-4.889,4.551L254.839,99.188z"
			/>
		<path style="fill:#3B5765;" d="M295.638,78.953c-7.404,6.329-8.367,16.998-22.603,16.998s-11.731,3.525-15.894-5.281
			c-4.056-8.581-4.287-13.188-4.931-21.571c-0.318-4.142,4.367-10.348,13.625-12.957c10.691-6.573,19.749,0.018,25.243,1.247
			c8.047,1.8,8.745,6.755,7.745,9.678C298.903,74.605,298.151,75.12,295.638,78.953z"/>
		<path style="fill:#EC925D;" d="M307.269,223.825c0.086,0.759-3.524,9.329-6.842,16.831c-0.187,0.435-0.374,0.87-0.591,1.309
			c-2.395,5.475-4.506,10.061-4.652,10.078c-4.599-0.927-9.14-1.86-13.604-2.891c-1.483-0.305-2.938-0.613-4.428-0.976
			c-17.603-4.005-34.355-8.846-50.971-16.127c-13.874-6.054-19.196-20.648-17.644-29.902c0.173-1.084,0.352-2.109,0.509-3.074
			c2.541-15.131,2.694-14.823,22.555-13.854c3.595,0.154,12.935,4.298,16.462,5.406c8.993,2.912,5.965-1.889,13.48,2.847
			c0.446,0.275,0.894,0.579,1.339,0.853c3.658,2.276,7.005,4.409,10.095,6.365c14.013,8.848,22.679,14.606,29.673,19.696
			c0.318,0.2,0.64,0.43,0.933,0.663c1.16,0.844,2.292,1.691,3.39,2.513C307.1,223.637,307.2,223.744,307.269,223.825z"/>
		<path style="fill:#3B5765;" d="M272.662,329.256c-2.305,0.794-13.9-1.587-18.512-6.799c-0.403-0.428-1.241-2.077-2.293-4.057
			c-0.004-0.029-0.004-0.029-0.007-0.059c-1.809-3.432-4.21-7.92-5.91-9.087c-2.723-1.85-5.032-8.388-4.099-10.327
			c0.933-1.939,15.034-12.912,15.034-12.912l9.449,10.577c0,0-1.445,3.417-0.76,9.459c0.272,2.394,0.885,5.192,2.077,8.398
			C272.725,321.738,280.802,326.47,272.662,329.256z"/>
		<path style="opacity:0.28;fill:#3B5765;" d="M266.324,296.593c0,0-1.445,3.417-0.76,9.459c-1.686,0.517-4.739,0.449-9.785-2.585
			c-8.853-5.323-9.152,0.122-8.846,1.772c0.309,1.679,2.999,7.672,4.917,13.102c-1.809-3.432-4.21-7.92-5.91-9.087
			c-2.723-1.85-5.032-8.388-4.099-10.327c0.933-1.939,15.034-12.912,15.034-12.912L266.324,296.593z"/>
		<path style="fill:#EC925D;" d="M316.63,246.919c-5.88,19.058-47.202,52.013-48.898,55.044c-0.614,1.104-1.752,1.5-3.128,1.36
			c0,0-0.029,0.003-0.058,0.007c-5.922-0.6-16.545-10.571-13.745-14.555c0,0,6.821-10.767,15.634-24.304
			c0.026-0.032,0.048-0.094,0.074-0.126c1.536-2.362,3.123-4.79,4.766-7.253c1.914-2.937,3.879-5.94,5.878-8.916
			c0.203-0.29,0.404-0.607,0.634-0.93c1.866-2.843,3.76-5.69,5.636-8.445c0.524-1.892,10.628-21.253,11.129-23.35
			c3.028,1.667,5.727,3.313,8.1,4.936c0.318,0.2,0.64,0.43,0.933,0.663c1.16,0.844,2.292,1.691,3.39,2.513
			c0.127,0.074,0.227,0.181,0.296,0.262C318.141,232.614,319.512,240.265,316.63,246.919z"/>
		<path style="opacity:0.43;fill:#EC925D;" d="M244.556,215.742c23.486-7.978,29.946-11.802,29.612-14.299
			c-3.09-1.955-7.627-4.841-11.285-7.117l-16.021,0.044l-37.278,4.229l-0.537,0.475c-0.157,0.964-0.336,1.99-0.509,3.074
			c-1.552,9.254,3.77,23.847,17.644,29.902c16.615,7.281,33.367,12.122,50.971,16.127c-0.386,0.465-26.351,40.599-26.351,40.599
			c-2.8,3.984,7.822,13.956,13.745,14.555c-2.911-1.947-10.526-10.778-6.772-14.447c14.147-13.829,21.259-23.448,21.259-23.448
			c7.205-6.402,1.489-16.718,13.177-21.271C286.165,245.617,226.323,221.936,244.556,215.742z"/>
		<path style="opacity:0.51;fill:#F8C650;" d="M294.15,196.33c-7.898-4.475-28.763-16.387-31.058-17.707
			c-2.801-1.614-7.151-7.264-8.511-9.269c0.32-5.16,2.268-9.27,5.07-11.886c-1.468-1.835-2.215-4.011-1.761-6.53
			c0.774-4.304,4.242-14.258,5.337-18.318c1.521-5.674,3.495-10.346,5.817-13.892l12.594,2.079c0,0-0.373,36.221-1.387,40.795
			c0,0.024,1.657,3.882,2.212,8.106C282.947,173.41,285.985,191.195,294.15,196.33z"/>
		<path style="fill:#F8C650;" d="M288.84,118.532c0,0.318,0,0.636-0.027,0.929v0.22c0.027,20.055-15.556,52.436-16.116,58.624
			c0,0.049-2.083,9.16,3.574,12.805c0,0,4.666,4.096-11.952,12.533c-0.16-0.098-0.374-0.196-0.587-0.294
			c-1.361-0.709-2.561-1.419-3.388-2.323c-0.934-1.003-1.334-2.201-0.801-3.84c-0.8,1.835-1.281,3.326-1.601,4.525
			c-0.107,0.416-0.186,0.807-0.267,1.149c-0.373,1.859-0.266,2.886-0.24,3.522c-1.254,3.497-11.34,4.965-19.558,5.576
			c-0.134,0-0.24,0.024-0.374,0.024c-7.204,0.514-14.461-0.098-21.452-1.883c-6.377-1.639-13.581-3.987-13.181-6.457
			c2.374-13.941,9.258-25.313,11.687-54.687c0.16-2.201,10.219-28.052,17.29-36.392c0.774-0.905,1.521-1.59,2.161-2.03
			c0.453-0.293,0.8-0.538,1.094-0.758c2.135-1.443,3.042-2.25,6.19-3.889c0.72-0.391,1.548-0.807,2.535-1.296
			c18.037-8.78,35.487-6.971,44.025,10.028c0.374,0.807,0.214,0.367,0.694,1.981C288.707,117.26,288.814,117.871,288.84,118.532z"/>
		<path style="fill:#FCC7A9;" d="M283.546,102.623l-7.071,6.494c-0.028,1.028-0.085,2.197-0.155,3.437
			c-0.31,5.296-1.071,11.677-3.085,12.185c-0.465-6.029-1.732-10.227-3.733-13.424c-1.226-2-2.761-3.62-4.536-5.057
			c-2.592-2.127-5.733-3.873-9.368-5.93c0.198-0.38,8.96-12.241,8.96-12.241C267.079,84.621,285.349,99.257,283.546,102.623z"/>
		<path style="opacity:0.39;fill:#FCC7A9;" d="M283.493,104.467l-7.071,5.953c-0.028,0.943-0.462,14.036-3.24,14.319
			c1.183-0.54,1.954-4.444,2.266-6.728c0.327-2.39,0.196-4.245-3.224-4.248c-0.972-0.258-1.887-0.723-2.775-1.33
			c-1.226-1.834-2.761-3.318-4.536-4.636c-14.738-1.799-5.571-10.232-5.571-10.232L283.493,104.467z"/>
		<path style="fill:#F8C650;" d="M270.057,112.184c-0.051,0.345-0.216,1.83,0.429,3.329c0,0-6.208-0.12-7.8-2.268
			c-1.555-2.099,6.375-1.512,7.303-1.178C270.04,112.086,270.064,112.133,270.057,112.184z"/>
		<path style="opacity:0.51;fill:#F8C650;" d="M245.642,160.941c4.698-10.687,0.48-22.868,1.521-33.531
			c1.071-10.978-0.092-16.45-2.191-19.169c-1.764-1.934,3.967-5.839,5.919-4.946c-3.726,0.977-2.375,4.072-1.432,4.849
			c3.808,2.867,5.847,13.755,5.847,13.755s11.324-7.01,14.276-6.987c-4.461-0.796-17.675-13.555-17.675-13.555
			c-4.457,0.831-15.838,7.409-15.531,7.353c-0.306,0.283-1.914,1.53-2.368,1.823c-0.64,0.441-1.387,1.125-2.161,2.03
			c-7.071,8.34-17.13,34.191-17.29,36.392c-2.428,29.374-9.312,40.746-11.687,54.687c-0.401,2.47,6.804,4.818,13.181,6.457
			c6.991,1.785,14.248,2.397,21.452,1.883c-8.191-1.639-42.042-6.24-20.572-22.281c2.72-2.032,28.923,11.593,40.904,12.058
			c0.027-0.024,0.053-0.049,0.107-0.049c0.907-0.391,4.056,0.807,5.79,1.639c0.214,0.098,0.427,0.195,0.587,0.294
			c6.057-4.28,4.699-9.699,4.726-11.95C269.098,187.683,240.748,172.071,245.642,160.941z"/>
		<path style="fill:#F8C650;" d="M258.525,112.796c3.626,0.135,11.289-1.011,11.517-0.683c0.015,0.021,0.012,0.048,0.008,0.072
			c-0.037,0.269-0.231,1.935,0.436,3.327C266.485,112.293,258.973,114.762,258.525,112.796z"/>
		<path style="fill:#F8C650;" d="M269.998,112.073c-0.606-0.219-1.972,0.401-3.634,1.421c-2.043,1.265-4.536,3.137-6.635,4.79
			c-2.479,1.963-4.424,3.616-4.424,3.616s0.141-11.324-4.254-14.513c-4.339-3.138,1.479-6.378,2.226-7.05
			c0.845-0.736,1.507-1.214,2.028-1.485c0-0.013,0-0.013,0-0.013s2.156-1.317,3.578-1.188c1.409,0.129-1.042,0.233-1.704,2.712
			C257.715,105.759,268.308,111.169,269.998,112.073z"/>
		<path style="opacity:0.55;fill:#F8C650;" d="M276.267,114.939c1.294-1.156,3.491,5.209,5.435,6.459
			c0.747-3.499,1.596-9.095,1.794-10.704C280.139,108.933,276.971,112.276,276.267,114.939z"/>
		<path style="fill:#F8C650;" d="M276.26,115.139c0,0,0.514-2.655,2.524-3.609c1.805-0.856-1.539-0.015-2.241,0.166
			c-0.08,0.021-0.127,0.084-0.131,0.161L276.26,115.139z"/>
		<path style="fill:#F8C650;" d="M276.474,111.731c0,0,1.119-0.547,2.566,3.782c1.448,4.328,2.606,5.301,2.606,5.301
			s0.289-7.679,1.254-8.705c0.965-1.026-0.965-4.742-0.965-4.742L276.474,111.731z"/>
		<path style="fill:#FCC7A9;" d="M294.235,82.79c-0.504,1.111-0.715,2.324-0.63,3.541c0.289,4.108-1.327,8.106-4.017,12.72
			c-7.329,12.574-7.885,10.88-14.38,9.401c-4.007-0.912-7.658-3.005-10.468-6.003c-3.894-4.155-7.327-9.975-10.202-18.384
			c-1.076-3.145-0.881-6.62,0.633-9.58c7.457-14.575,21.477-8.596,33.977-5.83C298.564,70.738,296.31,78.22,294.235,82.79z"/>
		<path style="fill:#3B5765;" d="M295.638,78.953c0,0-10.119-4.72-8.28-8.845c0.602-1.35-2.185-2.058-3.662-2.119
			c-8.747-0.361-14.928,3.571-16.729,8.757c-0.366,1.056-0.549,2.169-0.536,3.31c0.127,8.396-5.311,4.339-6.649,7.509
			c-0.733,1.718-1.944,2.099-2.17,4.113c-2.955-4.496-4.432-13.488-5.645-19.735c0.125-6.189,2.701-10.772,10.082-14.298
			c12.34-5.903,22.919-1.127,28.37,4.423c0,0,0,0.014,0.014,0.028C302.837,65.068,305.383,73.305,295.638,78.953z"/>
		<path style="fill:#3B5765;" d="M259.785,87.559c-0.731,1.729-0.161,5.517-0.39,7.535c-5.645-8.589-12.821-30.049,2.654-37.454
			L259.785,87.559z"/>
		<path style="fill:#FCC7A9;" d="M262.774,86.147c-1.518,2.754,0.719,6.418-1.12,7.111c-1.839,0.694-4.319-1.365-5.539-4.599
			c-1.22-3.234-2.209-5.855,1.12-7.111C261.484,79.946,264.442,83.12,262.774,86.147z"/>
		<path style="fill:#F8C650;" d="M233.974,163.816l9.235-26.241c9.452-19.292,3.597-27.585,2.604-28.7
			c-1.248-1.4-4.74-1.731-6.326-1.337c-7.406,1.839-16.285,11.246-25.201,36.128c-0.14,0.392-6.853,21.153-7.036,21.798
			C207.175,165.764,225.144,162.291,233.974,163.816z"/>
		<path style="opacity:0.69;fill:#F8C650;" d="M273.214,126.108c0.176,12.123-1.785,24.531-7.255,35.454
			c-2.398,5.556-3.665,11.54-4.588,17.516c-0.901,5.993-1.496,12.039-1.796,18.109l-0.064,0c-0.045-6.08,0.314-12.179,1.244-18.202
			c0.942-6.001,2.228-12.05,4.886-17.57c2.977-5.326,4.598-11.248,5.593-17.22c0.997-5.978,1.66-12.014,1.915-18.086
			L273.214,126.108z"/>
		<path style="opacity:0.14;fill:#F8C650;" d="M259.729,117.87c0.45-4.093-5.727-13.256-2.536-11.905
			c1.935,3.804,7.198,6.172,9.171,7.528c-2.043,1.265-4.536,3.137-6.635,4.79C259.701,118.167,259.715,118.025,259.729,117.87z"/>
		<g>
			<path style="fill:#3B5765;" d="M298.203,197.544c-0.619-0.19-1.283-0.173-1.891,0.05l-38.587,14.149
				c-0.231-0.196-0.655-0.531-0.727-0.413c-0.111,0.183-0.252,0.922-0.221,1.172c0,0.003,0,0.006,0,0.006
				c0.001,0.012-0.001,0.034,0.001,0.042c0,0,0.009-0.004,0.011-0.001c0.015,0.217,0.133,0.428,0.377,0.518l38.868,14.425
				c0.393,0.146,0.826,0.134,1.21-0.032l40.108-17.849L298.203,197.544z"/>
			<path style="fill:#ABE3EF;" d="M297.408,226.54l40.781-17.642l-39.82-12.274c-0.619-0.19-1.283-0.173-1.891,0.05l-39.145,14.354
				c-0.521,0.191-0.522,0.927-0.002,1.12l38.868,14.425C296.591,226.717,297.024,226.706,297.408,226.54z"/>
			<path style="fill:#3B5765;" d="M354.736,167.131c-1.024-1.16-1.309-1.043-1.834-0.872l-40.978,13.564
				c-0.898,0.297-1.6,1.006-1.888,1.907l-14.092,44.04c-0.217,0.678,0.469,1.293,1.12,1.005l41.2-18.29
				c0.74-0.329,1.314-0.946,1.586-1.709l13.988-39.174C354.109,167.542,354.405,167.418,354.736,167.131z"/>
			<path style="fill:#ABE3EF;" d="M297.408,226.54l40.781-17.642l-39.82-12.274c-0.619-0.19-1.283-0.173-1.891,0.05l-39.145,14.354
				c-0.521,0.191-0.522,0.927-0.002,1.12l38.868,14.425C296.591,226.717,297.024,226.706,297.408,226.54z"/>
			<path style="fill:#ABE3EF;" d="M298.768,225.099l36.903-15.964l-24.995-6.798c-0.56-0.172-1.161-0.157-1.711,0.045
				l-35.423,12.989c-0.471,0.173-0.473,0.838-0.002,1.013l24.133,8.743C298.029,225.26,298.421,225.249,298.768,225.099z"/>
			<path style="fill:#ABE3EF;" d="M285.784,209.468l11.545-4.044c0.209-0.073,0.208-0.369-0.001-0.441l-7.771-2.671
				c-0.193,0.002-0.37,0.004-0.563,0.006l-11.151,4.089c0,0.158,0,0.16,0,0.319l7.566,2.741
				C285.538,209.467,285.656,209.468,285.784,209.468z"/>
			<path style="fill:#ABE3EF;" d="M298.003,227.39l41.199-18.29c0.741-0.329,1.314-0.947,1.586-1.709l14.088-39.457
				c0.231-0.647-0.384-1.276-1.035-1.06l-40.978,13.564c-0.898,0.297-1.6,1.006-1.888,1.907l-14.092,44.04
				C296.667,227.064,297.353,227.679,298.003,227.39z"/>
			<path style="opacity:0.54;fill:#ABE3EF;" d="M329.836,196.867c0.009-0.011,0.019-0.019,0.028-0.03
				c1.974-2.337,2.639-5.021,1.485-5.996c-1.154-0.974-3.689,0.13-5.663,2.467c-0.546,0.646-0.981,1.317-1.315,1.973
				c-2.665,0.048-4.768,1.052-4.846,2.418c-0.087,1.507,2.318,2.872,5.372,3.048c3.054,0.176,5.6-0.903,5.687-2.411
				C330.614,197.814,330.329,197.312,329.836,196.867z"/>
			<path style="opacity:0.45;fill:#ABE3EF;" d="M353.842,166.874l-0.863,0.285c-0.015,0.051-0.003,0.102-0.029,0.152
				c0,0-6.189,12.991-12.071,24.112c-4.828,9.128-12.442,16.466-21.742,20.952l-21.015,10.136l-1.239,3.874
				c-0.217,0.678,0.469,1.293,1.12,1.005l41.2-18.29c0.74-0.329,1.313-0.946,1.585-1.709l14.089-39.457
				C355.108,167.288,354.494,166.658,353.842,166.874z"/>
		</g>
		<path style="fill:#FCC7A9;" d="M253.978,185.64c0,0,12.443,8.371,14.605,8.937c2.161,0.566,7.678,0.877,9.664,0.982
			c1.986,0.104,7.995,6.534,9,9.718c1.006,3.184,1.029,6.681,0.057,7.831c-0.972,1.15-6.687,0.616-10.954-1.061
			c-4.268-1.677-5.978-6.686-7.468-7.305c-1.49-0.619-22.019-10.371-22.019-10.371L253.978,185.64z"/>
		<path style="fill:#F8C650;" d="M233.782,166.423l0.639-3.81c-7.905,3.917-20.534-7.257-26.919,2.35
			c0.012,0.021-0.574,2.488,0,4.964c0.693,2.992,2.347,6.169,4.616,8.413c1.603,1.585,4.423,2.967,5.459,3.478
			c8.96,7.469,23.927,14.646,43.604,21.594c3.357,1.395,8.839-10.514,7.864-11.718L233.782,166.423z"/>
		<path style="fill:#FCC7A9;" d="M278.211,196.059c1.282,0.272,2.664,0.501,3.97,0.645c0.652,0.066,1.308,0.12,1.904,0.119
			c0.54,0.042,1.252-0.163,1.059-0.027c0.802-0.604,1.942-0.444,2.546,0.358c0.604,0.802,0.444,1.942-0.358,2.546
			c-1.409,0.898-2.175,0.801-3.031,0.954c-0.821,0.08-1.584,0.086-2.347,0.082c-1.524-0.025-2.962-0.124-4.48-0.298
			c-1.22-0.139-2.096-1.241-1.957-2.461c0.139-1.22,1.241-2.097,2.462-1.957C278.05,196.029,278.143,196.045,278.211,196.059z"/>
	</g>
</g>
</svg>
