<svg width="2452" height="500" viewBox="0 0 2452 500" fill="none" xmlns="http://www.w3.org/2000/svg">
<rect width="2452" height="500" fill="none"/>
<rect x="10" y="10" width="480" height="480" rx="58" fill="#7297CE" stroke="black" stroke-width="20"/>
<path d="M62.5 99.25H175C194.891 99.25 213.968 107.152 228.033 121.217C242.098 135.282 250 154.359 250 174.25V436.75C250 421.832 244.074 407.524 233.525 396.975C222.976 386.426 208.668 380.5 193.75 380.5H62.5V99.25Z" fill="white" stroke="black" stroke-width="11" stroke-linecap="round" stroke-linejoin="round"/>
<path d="M437.5 99.25H325C305.109 99.25 286.032 107.152 271.967 121.217C257.902 135.282 250 154.359 250 174.25V436.75C250 421.832 255.926 407.524 266.475 396.975C277.024 386.426 291.332 380.5 306.25 380.5H437.5V99.25Z" fill="white" stroke="black" stroke-width="11" stroke-linecap="round" stroke-linejoin="round"/>
<path d="M596.466 179.952L577.789 175.802L580.23 163.839H635.772L638.214 175.802L619.659 179.952V234.029H695.831V179.952L677.276 175.802L679.718 163.839H735.382L737.823 175.802L719.024 179.952V312.887L737.823 317.037L735.382 329H679.718L677.276 317.037L695.831 312.887V249.776H619.659V312.887L638.214 317.037L635.772 329H580.23L577.789 317.037L596.466 312.887V179.952ZM780.914 265.157V274.435C780.914 288.106 784.658 298.645 792.145 306.051C799.713 313.375 808.705 317.037 819.122 317.037C825.877 317.037 832.509 316.305 839.02 314.84C845.53 313.375 851.593 311.463 857.208 309.103V320.821C850.128 324.565 842.682 327.291 834.869 329C827.138 330.79 819.448 331.686 811.798 331.686C795.034 331.686 782.013 327.128 772.735 318.014C763.539 308.899 758.941 295.715 758.941 278.463V268.331C758.941 244.975 764.109 226.746 774.444 213.644C784.861 200.46 799.021 193.868 816.925 193.868C833.445 193.868 845.367 198.1 852.691 206.563C860.016 214.946 863.678 229.594 863.678 250.509V265.157H780.914ZM788.238 215.841C786.448 220.398 784.902 225.932 783.6 232.442C782.379 238.953 781.606 244.975 781.28 250.509H840.484C840.484 235.698 838.328 224.996 834.015 218.404C829.783 211.812 822.947 208.517 813.507 208.517C808.705 208.517 803.985 209.249 799.347 210.714C794.708 212.179 791.005 213.888 788.238 215.841ZM918.731 279.806C918.731 292.501 920.969 301.9 925.445 308.004C929.921 314.026 937.53 317.037 948.272 317.037C954.132 317.037 959.951 315.654 965.729 312.887C971.507 310.12 976.674 306.336 981.231 301.534V212.667L958.893 208.517L961.334 196.554L1003.2 193.868V312.887L1021.88 317.037L1019.44 329L990.753 331.686L983.673 309.957C977.081 317.688 970.082 323.263 962.677 326.681C955.353 330.017 947.255 331.686 938.385 331.686C924.713 331.686 914.337 327.82 907.257 320.089C900.258 312.358 896.759 300.72 896.759 285.177V212.667L878.082 208.517L880.523 196.554L918.731 193.868V279.806ZM1059.11 212.667L1040.44 208.517L1042.88 196.554L1071.56 193.868L1078.64 215.597C1082.55 208.272 1087.11 202.82 1092.32 199.239C1097.61 195.659 1103.75 193.868 1110.75 193.868C1114.08 193.868 1117.34 194.316 1120.51 195.211C1123.77 196.106 1126.58 197.368 1128.94 198.995L1125.88 233.541H1112.21L1109.04 210.958C1107.49 210.307 1105.66 209.981 1103.55 209.981C1099.4 209.981 1095.25 211.487 1091.09 214.498C1086.94 217.428 1083.61 220.683 1081.08 224.264V312.887L1103.79 317.037L1101.35 329H1042.88L1040.44 317.037L1059.11 312.887V212.667ZM1167.27 212.667L1148.59 208.517L1151.03 196.554L1189.24 193.868V312.887L1207.92 317.037L1205.47 329H1151.03L1148.59 317.037L1167.27 312.887V212.667ZM1161.53 157.979C1161.53 153.422 1162.71 149.475 1165.07 146.139C1167.51 142.721 1170.32 141.012 1173.49 141.012C1178.13 141.012 1182.08 142.192 1185.33 144.552C1188.67 146.912 1190.34 149.76 1190.34 153.097C1190.34 157.654 1189.12 161.601 1186.68 164.938C1184.32 168.274 1181.55 169.942 1178.38 169.942C1173.82 169.942 1169.87 168.762 1166.53 166.402C1163.2 164.042 1161.53 161.235 1161.53 157.979ZM1285.92 253.194C1302.85 261.821 1313.55 269.226 1318.02 275.411C1322.58 281.515 1324.86 288.351 1324.86 295.919C1324.86 306.498 1320.18 315.125 1310.82 321.798C1301.54 328.39 1289.21 331.686 1273.83 331.686C1265.53 331.686 1257.76 330.831 1250.52 329.122C1243.28 327.413 1237.38 325.419 1232.82 323.141L1231.6 293.844L1244.9 291.402L1251.98 314.229C1255.16 315.206 1258.66 315.938 1262.48 316.427C1266.31 316.834 1270.17 317.037 1274.08 317.037C1278.47 317.037 1282.83 316.793 1287.14 316.305C1291.53 315.735 1295.97 314.84 1300.45 313.619C1301.26 311.91 1301.87 309.998 1302.28 307.882C1302.68 305.685 1302.89 303.569 1302.89 301.534C1302.89 295.756 1300.28 290.589 1295.07 286.031C1289.87 281.393 1279.77 275.126 1264.8 267.232C1251.29 260.152 1242.22 253.805 1237.58 248.189C1232.94 242.574 1230.62 236.145 1230.62 228.902C1230.62 218.73 1234.89 210.348 1243.44 203.756C1251.98 197.164 1264.11 193.868 1279.82 193.868C1287.14 193.868 1294.26 194.641 1301.18 196.188C1308.1 197.652 1314.04 199.646 1319 202.169L1320.1 231.588L1306.79 234.029L1299.59 210.958C1296.34 210.063 1292.88 209.452 1289.21 209.127C1285.55 208.72 1282.18 208.517 1279.08 208.517C1274.77 208.517 1270.58 208.842 1266.51 209.493C1262.44 210.063 1258.7 210.877 1255.28 211.935C1254.55 213.237 1253.9 214.946 1253.33 217.062C1252.84 219.096 1252.59 221.212 1252.59 223.409C1252.59 227.804 1254.42 231.954 1258.09 235.86C1261.83 239.685 1271.11 245.463 1285.92 253.194ZM1415.07 196.554L1417.51 208.639L1379.67 212.545V291.28C1379.67 299.907 1380.93 306.376 1383.45 310.689C1386.06 314.921 1391.27 317.037 1399.08 317.037C1401.68 317.037 1404.57 316.63 1407.75 315.816C1410.92 315.003 1414.21 313.823 1417.63 312.276V323.751C1413.89 326.192 1409.58 328.105 1404.69 329.488C1399.89 330.953 1395.05 331.686 1390.17 331.686C1378.77 331.686 1370.51 328.756 1365.39 322.896C1360.26 317.037 1357.7 308.085 1357.7 296.041V212.545L1338.04 208.639L1340.48 196.554H1357.7L1366.61 160.787L1379.67 163.229V196.554H1415.07ZM1456.82 212.667L1438.14 208.517L1440.58 196.554L1478.79 193.868V312.887L1497.47 317.037L1495.03 329H1440.58L1438.14 317.037L1456.82 312.887V212.667ZM1451.08 157.979C1451.08 153.422 1452.26 149.475 1454.62 146.139C1457.06 142.721 1459.87 141.012 1463.04 141.012C1467.68 141.012 1471.63 142.192 1474.88 144.552C1478.22 146.912 1479.89 149.76 1479.89 153.097C1479.89 157.654 1478.67 161.601 1476.23 164.938C1473.87 168.274 1471.1 169.942 1467.93 169.942C1463.37 169.942 1459.42 168.762 1456.08 166.402C1452.75 164.042 1451.08 161.235 1451.08 157.979ZM1517.49 268.941C1517.49 244.853 1522.61 226.339 1532.87 213.399C1543.2 200.379 1557.44 193.868 1575.59 193.868C1581.78 193.868 1587.96 194.479 1594.15 195.699C1600.41 196.92 1606.64 198.873 1612.82 201.559L1615.14 230.123L1601.71 232.931L1593.29 211.08C1590.53 210.266 1587.68 209.656 1584.75 209.249C1581.82 208.761 1578.64 208.517 1575.23 208.517C1570.18 208.517 1565.22 209.127 1560.33 210.348C1555.53 211.568 1551.01 213.399 1546.78 215.841C1544.99 220.724 1543.32 227.234 1541.78 235.372C1540.23 243.429 1539.46 252.177 1539.46 261.617V274.923C1539.46 287.944 1543.24 298.238 1550.81 305.807C1558.38 313.294 1567.49 317.037 1578.16 317.037C1584.01 317.037 1589.91 316.305 1595.86 314.84C1601.88 313.294 1607.98 311.056 1614.17 308.126V319.845C1608.55 323.344 1602.08 326.192 1594.76 328.39C1587.51 330.587 1579.99 331.686 1572.17 331.686C1555 331.686 1541.57 327.291 1531.89 318.502C1522.29 309.632 1517.49 296.896 1517.49 280.294V268.941ZM1652.37 179.952L1633.7 175.802L1636.14 163.839H1694.37C1711.62 163.839 1724.72 167.013 1733.67 173.36C1742.71 179.627 1747.22 189.148 1747.22 201.925C1747.22 211.202 1744.9 219.137 1740.26 225.729C1735.63 232.239 1729.93 237.203 1723.17 240.621L1723.42 242.574C1732.45 244.283 1739.86 248.271 1745.64 254.537C1751.41 260.722 1754.3 268.535 1754.3 277.975C1754.3 293.681 1749.5 306.132 1739.9 315.328C1730.38 324.443 1717.27 329 1700.59 329H1636.14L1633.7 317.037L1652.37 312.887V179.952ZM1675.57 251.119V313.253H1692.29C1699.78 313.253 1706.33 312.765 1711.94 311.788C1717.56 310.812 1722.77 309.306 1727.57 307.271C1728.63 303.935 1729.48 300.069 1730.13 295.675C1730.78 291.28 1731.11 286.438 1731.11 281.148C1731.11 271.627 1727.81 264.262 1721.22 259.054C1714.63 253.764 1705.68 251.119 1694.37 251.119H1675.57ZM1675.57 179.586V235.372H1691.56C1697.91 235.372 1703.32 234.884 1707.79 233.907C1712.35 232.849 1716.18 231.751 1719.27 230.611C1720.41 227.519 1721.47 223.857 1722.44 219.625C1723.5 215.393 1724.03 210.632 1724.03 205.343C1724.03 196.554 1721.1 190.084 1715.24 185.934C1709.46 181.702 1700.92 179.586 1689.61 179.586H1675.57ZM1811.31 279.806C1811.31 292.501 1813.55 301.9 1818.02 308.004C1822.5 314.026 1830.11 317.037 1840.85 317.037C1846.71 317.037 1852.53 315.654 1858.31 312.887C1864.08 310.12 1869.25 306.336 1873.81 301.534V212.667L1851.47 208.517L1853.91 196.554L1895.78 193.868V312.887L1914.46 317.037L1912.02 329L1883.33 331.686L1876.25 309.957C1869.66 317.688 1862.66 323.263 1855.25 326.681C1847.93 330.017 1839.83 331.686 1830.96 331.686C1817.29 331.686 1806.92 327.82 1799.83 320.089C1792.84 312.358 1789.34 300.72 1789.34 285.177V212.667L1770.66 208.517L1773.1 196.554L1811.31 193.868V279.806ZM1951.69 212.667L1933.01 208.517L1935.46 196.554L1973.66 193.868V312.887L1992.34 317.037L1989.9 329H1935.46L1933.01 317.037L1951.69 312.887V212.667ZM1945.95 157.979C1945.95 153.422 1947.13 149.475 1949.49 146.139C1951.93 142.721 1954.74 141.012 1957.92 141.012C1962.55 141.012 1966.5 142.192 1969.76 144.552C1973.09 146.912 1974.76 149.76 1974.76 153.097C1974.76 157.654 1973.54 161.601 1971.1 164.938C1968.74 168.274 1965.97 169.942 1962.8 169.942C1958.24 169.942 1954.29 168.762 1950.96 166.402C1947.62 164.042 1945.95 161.235 1945.95 157.979ZM2030.67 157.125L2011.99 152.975L2014.43 141.012L2052.64 138.326V312.887L2071.32 317.037L2068.88 329H2014.43L2011.99 317.037L2030.67 312.887V157.125ZM2198.52 312.887L2217.19 317.037L2214.75 329L2186.07 331.686L2178.99 310.079C2173.04 317.81 2166.53 323.385 2159.45 326.803C2152.46 330.221 2145.17 331.848 2137.6 331.686C2123.04 331.686 2111.6 327.128 2103.3 318.014C2095.08 308.818 2090.97 295.675 2090.97 278.585V267.232C2090.97 244.365 2096.1 226.42 2106.35 213.399C2116.69 200.379 2131.01 193.868 2149.32 193.868C2152.74 193.868 2156.65 194.112 2161.04 194.601C2165.52 195.007 2170.68 195.74 2176.54 196.798V157.125L2157.87 152.975L2160.31 141.012L2198.52 138.326V312.887ZM2112.95 276.021C2112.95 289.286 2115.79 299.459 2121.49 306.539C2127.19 313.538 2134.8 317.037 2144.32 317.037C2150.26 317.037 2156.16 315.45 2162.02 312.276C2167.96 309.021 2172.8 305.44 2176.54 301.534V211.812C2171.82 210.836 2166.86 210.063 2161.65 209.493C2156.44 208.842 2151.52 208.517 2146.88 208.517C2141.59 208.517 2136.5 209.29 2131.62 210.836C2126.74 212.301 2122.55 214.254 2119.05 216.695C2117.1 223.043 2115.59 230.042 2114.53 237.691C2113.47 245.26 2112.95 253.194 2112.95 261.495V276.021ZM2257.48 265.157V274.435C2257.48 288.106 2261.22 298.645 2268.71 306.051C2276.28 313.375 2285.27 317.037 2295.68 317.037C2302.44 317.037 2309.07 316.305 2315.58 314.84C2322.09 313.375 2328.16 311.463 2333.77 309.103V320.821C2326.69 324.565 2319.24 327.291 2311.43 329C2303.7 330.79 2296.01 331.686 2288.36 331.686C2271.6 331.686 2258.58 327.128 2249.3 318.014C2240.1 308.899 2235.5 295.715 2235.5 278.463V268.331C2235.5 244.975 2240.67 226.746 2251.01 213.644C2261.42 200.46 2275.58 193.868 2293.49 193.868C2310.01 193.868 2321.93 198.1 2329.25 206.563C2336.58 214.946 2340.24 229.594 2340.24 250.509V265.157H2257.48ZM2264.8 215.841C2263.01 220.398 2261.46 225.932 2260.16 232.442C2258.94 238.953 2258.17 244.975 2257.84 250.509H2317.05C2317.05 235.698 2314.89 224.996 2310.58 218.404C2306.35 211.812 2299.51 208.517 2290.07 208.517C2285.27 208.517 2280.55 209.249 2275.91 210.714C2271.27 212.179 2267.57 213.888 2264.8 215.841ZM2381.62 212.667L2362.95 208.517L2365.39 196.554L2394.07 193.868L2401.15 215.597C2405.06 208.272 2409.62 202.82 2414.83 199.239C2420.11 195.659 2426.26 193.868 2433.26 193.868C2436.59 193.868 2439.85 194.316 2443.02 195.211C2446.28 196.106 2449.09 197.368 2451.45 198.995L2448.39 233.541H2434.72L2431.55 210.958C2430 210.307 2428.17 209.981 2426.06 209.981C2421.91 209.981 2417.75 211.487 2413.6 214.498C2409.45 217.428 2406.12 220.683 2403.59 224.264V312.887L2426.3 317.037L2423.86 329H2365.39L2362.95 317.037L2381.62 312.887V212.667Z" fill="white"/>
</svg>
