<svg width="2864" height="500" viewBox="0 0 2864 500" fill="none" xmlns="http://www.w3.org/2000/svg">
<rect width="2864" height="500" fill="none"/>
<rect x="10" y="10" width="480" height="480" rx="58" fill="#7297CE" stroke="black" stroke-width="20"/>
<path d="M62.5 99.25H175C194.891 99.25 213.968 107.152 228.033 121.217C242.098 135.282 250 154.359 250 174.25V436.75C250 421.832 244.074 407.524 233.525 396.975C222.976 386.426 208.668 380.5 193.75 380.5H62.5V99.25Z" fill="white" stroke="black" stroke-width="11" stroke-linecap="round" stroke-linejoin="round"/>
<path d="M437.5 99.25H325C305.109 99.25 286.032 107.152 271.967 121.217C257.902 135.282 250 154.359 250 174.25V436.75C250 421.832 255.926 407.524 266.475 396.975C277.024 386.426 291.332 380.5 306.25 380.5H437.5V99.25Z" fill="white" stroke="black" stroke-width="11" stroke-linecap="round" stroke-linejoin="round"/>
<path d="M612.945 262.35C612.945 280.497 616.77 293.966 624.42 302.755C632.07 311.544 642.608 315.938 656.036 315.938C662.465 315.938 668.487 315.003 674.103 313.131C679.718 311.259 684.194 309.103 687.53 306.661C690.297 301.616 692.576 295.512 694.366 288.351C696.157 281.189 697.052 273.539 697.052 265.401V179.952L678.375 175.802L680.816 163.839H730.377L732.818 175.802L714.264 179.952V262.594C714.264 286.275 709.096 303.731 698.761 314.962C688.425 326.111 672.556 331.686 651.153 331.686C630.89 331.686 615.59 326.64 605.255 316.549C594.92 306.376 589.752 290.548 589.752 269.063V179.952L570.953 175.802L573.395 163.839H629.059L631.5 175.802L612.945 179.952V262.35ZM804.474 253.194C821.401 261.821 832.102 269.226 836.578 275.411C841.135 281.515 843.414 288.351 843.414 295.919C843.414 306.498 838.735 315.125 829.376 321.798C820.099 328.39 807.77 331.686 792.389 331.686C784.088 331.686 776.316 330.831 769.073 329.122C761.83 327.413 755.93 325.419 751.373 323.141L750.152 293.844L763.458 291.402L770.538 314.229C773.712 315.206 777.211 315.938 781.036 316.427C784.861 316.834 788.727 317.037 792.633 317.037C797.027 317.037 801.381 316.793 805.694 316.305C810.089 315.735 814.524 314.84 819 313.619C819.814 311.91 820.424 309.998 820.831 307.882C821.238 305.685 821.441 303.569 821.441 301.534C821.441 295.756 818.837 290.589 813.629 286.031C808.421 281.393 798.329 275.126 783.355 267.232C769.846 260.152 760.772 253.805 756.134 248.189C751.495 242.574 749.176 236.145 749.176 228.902C749.176 218.73 753.448 210.348 761.993 203.756C770.538 197.164 782.664 193.868 798.37 193.868C805.694 193.868 812.815 194.641 819.732 196.188C826.65 197.652 832.59 199.646 837.555 202.169L838.653 231.588L825.348 234.029L818.146 210.958C814.89 210.063 811.432 209.452 807.77 209.127C804.107 208.72 800.73 208.517 797.638 208.517C793.325 208.517 789.133 208.842 785.064 209.493C780.995 210.063 777.252 210.877 773.834 211.935C773.102 213.237 772.451 214.946 771.881 217.062C771.393 219.096 771.148 221.212 771.148 223.409C771.148 227.804 772.979 231.954 776.642 235.86C780.385 239.685 789.662 245.463 804.474 253.194ZM967.804 312.887L988.922 317.037L986.48 329L955.353 331.686L948.272 310.079C941.925 317.81 935.13 323.344 927.887 326.681C920.644 330.017 912.791 331.686 904.327 331.686C892.934 331.686 883.738 328.837 876.739 323.141C869.822 317.444 866.363 309.754 866.363 300.069C866.363 285.177 872.955 273.946 886.139 266.378C899.322 258.728 919.22 254.903 945.831 254.903V243.307C945.831 231.1 943.593 222.27 939.117 216.817C934.723 211.284 926.992 208.517 915.924 208.517C913.32 208.517 910.309 208.679 906.891 209.005C903.554 209.33 900.462 209.778 897.613 210.348L890.289 236.227L878.326 235.006V200.46C883.209 198.751 889.231 197.245 896.393 195.943C903.635 194.56 910.919 193.868 918.243 193.868C934.926 193.868 947.337 197.571 955.475 204.977C963.694 212.301 967.804 223.735 967.804 239.278V312.887ZM945.831 269.552C933.624 269.552 922.8 270.366 913.36 271.993C903.92 273.539 896.718 275.655 891.754 278.341C890.777 280.619 889.964 283.224 889.312 286.153C888.661 289.083 888.336 292.175 888.336 295.431C888.336 302.185 890.574 307.475 895.05 311.3C899.526 315.125 905.385 317.037 912.628 317.037C918.731 317.037 924.754 315.532 930.694 312.521C936.635 309.428 941.681 305.766 945.831 301.534V269.552ZM1034.7 213.399L1036.41 214.132C1041.29 207.703 1046.78 202.739 1052.89 199.239C1059.07 195.659 1066.52 193.868 1075.23 193.868C1089.22 193.868 1100.01 198.425 1107.57 207.54C1115.22 216.573 1119.05 229.96 1119.05 247.701V259.176C1119.05 281.718 1113.88 299.459 1103.55 312.398C1093.29 325.257 1079.62 331.686 1062.53 331.686C1055.53 331.686 1047.19 330.831 1037.51 329.122C1027.9 327.413 1019.64 325.623 1012.73 323.751V157.125L994.049 152.975L996.49 141.012L1034.7 138.326V213.399ZM1097.08 250.631C1097.08 236.552 1094.55 226.013 1089.51 219.015C1084.46 212.016 1077.14 208.517 1067.54 208.517C1061.92 208.517 1056.14 210.348 1050.2 214.01C1044.26 217.59 1039.09 221.822 1034.7 226.705V313.741C1038.69 314.555 1043.37 315.328 1048.74 316.061C1054.19 316.712 1059.6 317.037 1064.97 317.037C1069.94 317.037 1074.62 316.264 1079.01 314.718C1083.49 313.172 1087.03 311.422 1089.63 309.469C1091.34 305.888 1093.01 299.947 1094.63 291.646C1096.26 283.346 1097.08 274.516 1097.08 265.157V250.631ZM1162.14 212.667L1143.46 208.517L1145.9 196.554L1184.11 193.868V312.887L1202.79 317.037L1200.35 329H1145.9L1143.46 317.037L1162.14 312.887V212.667ZM1156.4 157.979C1156.4 153.422 1157.58 149.475 1159.94 146.139C1162.38 142.721 1165.19 141.012 1168.37 141.012C1173 141.012 1176.95 142.192 1180.21 144.552C1183.54 146.912 1185.21 149.76 1185.21 153.097C1185.21 157.654 1183.99 161.601 1181.55 164.938C1179.19 168.274 1176.42 169.942 1173.25 169.942C1168.69 169.942 1164.74 168.762 1161.41 166.402C1158.07 164.042 1156.4 161.235 1156.4 157.979ZM1241.12 157.125L1222.44 152.975L1224.88 141.012L1263.09 138.326V312.887L1281.77 317.037L1279.33 329H1224.88L1222.44 317.037L1241.12 312.887V157.125ZM1321.08 212.667L1302.4 208.517L1304.84 196.554L1343.05 193.868V312.887L1361.72 317.037L1359.28 329H1304.84L1302.4 317.037L1321.08 312.887V212.667ZM1315.34 157.979C1315.34 153.422 1316.52 149.475 1318.88 146.139C1321.32 142.721 1324.13 141.012 1327.3 141.012C1331.94 141.012 1335.89 142.192 1339.14 144.552C1342.48 146.912 1344.15 149.76 1344.15 153.097C1344.15 157.654 1342.93 161.601 1340.48 164.938C1338.12 168.274 1335.36 169.942 1332.18 169.942C1327.63 169.942 1323.68 168.762 1320.34 166.402C1317.01 164.042 1315.34 161.235 1315.34 157.979ZM1450.47 196.554L1452.91 208.639L1415.07 212.545V291.28C1415.07 299.907 1416.33 306.376 1418.85 310.689C1421.46 314.921 1426.67 317.037 1434.48 317.037C1437.08 317.037 1439.97 316.63 1443.15 315.816C1446.32 315.003 1449.62 313.823 1453.03 312.276V323.751C1449.29 326.192 1444.98 328.105 1440.09 329.488C1435.29 330.953 1430.45 331.686 1425.57 331.686C1414.17 331.686 1405.91 328.756 1400.79 322.896C1395.66 317.037 1393.1 308.085 1393.1 296.041V212.545L1373.44 208.639L1375.88 196.554H1393.1L1402.01 160.787L1415.07 163.229V196.554H1450.47ZM1555.45 196.554H1595.12L1597.56 208.517L1585.72 210.836L1542.14 328.756C1534.82 349.02 1527.58 363.424 1520.42 371.969C1513.34 380.514 1504.18 384.786 1492.95 384.786C1488.15 384.786 1483.31 384.176 1478.42 382.955C1473.54 381.734 1469.55 380.432 1466.46 379.049L1470.86 363.058C1475.33 364.685 1480.58 366.109 1486.6 367.33C1492.62 368.632 1498.36 369.283 1503.81 369.283C1506.91 367.167 1509.92 364.075 1512.85 360.006C1515.86 356.018 1518.54 350.769 1520.9 344.259L1471.22 210.836L1459.38 208.517L1461.82 196.554H1506.99L1509.43 208.517L1494.17 210.836L1530.18 312.887H1532.13L1568.27 210.836L1553.01 208.517L1555.45 196.554ZM1706.7 262.35C1706.7 280.497 1710.52 293.966 1718.17 302.755C1725.82 311.544 1736.36 315.938 1749.79 315.938C1756.22 315.938 1762.24 315.003 1767.85 313.131C1773.47 311.259 1777.94 309.103 1781.28 306.661C1784.05 301.616 1786.33 295.512 1788.12 288.351C1789.91 281.189 1790.8 273.539 1790.8 265.401V179.952L1772.12 175.802L1774.57 163.839H1824.13L1826.57 175.802L1808.01 179.952V262.594C1808.01 286.275 1802.85 303.731 1792.51 314.962C1782.18 326.111 1766.31 331.686 1744.9 331.686C1724.64 331.686 1709.34 326.64 1699 316.549C1688.67 306.376 1683.5 290.548 1683.5 269.063V179.952L1664.7 175.802L1667.14 163.839H1722.81L1725.25 175.802L1706.7 179.952V262.35ZM1841.46 317.037L1860.14 312.887V212.667L1841.46 208.517L1843.9 196.554L1872.59 193.868L1879.67 215.597C1885.69 208.761 1892.49 203.43 1900.05 199.605C1907.62 195.781 1915.6 193.868 1923.98 193.868C1938.55 193.868 1949.29 197.693 1956.21 205.343C1963.12 212.911 1966.58 224.589 1966.58 240.377V312.887L1985.26 317.037L1982.82 329H1928.38L1925.93 317.037L1944.61 312.887V245.748C1944.61 233.297 1942.58 223.979 1938.51 217.794C1934.52 211.609 1927.28 208.517 1916.78 208.517C1911.33 208.517 1905.59 209.859 1899.57 212.545C1893.63 215.23 1887.81 219.137 1882.11 224.264V312.887L1900.79 317.037L1898.35 329H1843.9L1841.46 317.037ZM2024.44 212.667L2005.77 208.517L2008.21 196.554L2046.42 193.868V312.887L2065.09 317.037L2062.65 329H2008.21L2005.77 317.037L2024.44 312.887V212.667ZM2018.71 157.979C2018.71 153.422 2019.89 149.475 2022.25 146.139C2024.69 142.721 2027.5 141.012 2030.67 141.012C2035.31 141.012 2039.26 142.192 2042.51 144.552C2045.85 146.912 2047.52 149.76 2047.52 153.097C2047.52 157.654 2046.29 161.601 2043.85 164.938C2041.49 168.274 2038.73 169.942 2035.55 169.942C2031 169.942 2027.05 168.762 2023.71 166.402C2020.38 164.042 2018.71 161.235 2018.71 157.979ZM2204.74 208.517L2193.15 210.836L2151.76 329H2125.27L2083.53 210.836L2071.93 208.517L2074.37 196.554H2119.54L2121.98 208.517L2106.23 210.958L2140.17 312.887H2142.12L2176.06 210.958L2160.31 208.517L2162.75 196.554H2202.3L2204.74 208.517ZM2236.72 265.157V274.435C2236.72 288.106 2240.47 298.645 2247.96 306.051C2255.52 313.375 2264.52 317.037 2274.93 317.037C2281.69 317.037 2288.32 316.305 2294.83 314.84C2301.34 313.375 2307.4 311.463 2313.02 309.103V320.821C2305.94 324.565 2298.49 327.291 2290.68 329C2282.95 330.79 2275.26 331.686 2267.61 331.686C2250.84 331.686 2237.82 327.128 2228.55 318.014C2219.35 308.899 2214.75 295.715 2214.75 278.463V268.331C2214.75 244.975 2219.92 226.746 2230.25 213.644C2240.67 200.46 2254.83 193.868 2272.74 193.868C2289.26 193.868 2301.18 198.1 2308.5 206.563C2315.83 214.946 2319.49 229.594 2319.49 250.509V265.157H2236.72ZM2244.05 215.841C2242.26 220.398 2240.71 225.932 2239.41 232.442C2238.19 238.953 2237.42 244.975 2237.09 250.509H2296.29C2296.29 235.698 2294.14 224.996 2289.83 218.404C2285.59 211.812 2278.76 208.517 2269.32 208.517C2264.52 208.517 2259.8 209.249 2255.16 210.714C2250.52 212.179 2246.82 213.888 2244.05 215.841ZM2360.87 212.667L2342.19 208.517L2344.63 196.554L2373.32 193.868L2380.4 215.597C2384.31 208.272 2388.86 202.82 2394.07 199.239C2399.36 195.659 2405.51 193.868 2412.51 193.868C2415.84 193.868 2419.1 194.316 2422.27 195.211C2425.53 196.106 2428.33 197.368 2430.69 198.995L2427.64 233.541H2413.97L2410.8 210.958C2409.25 210.307 2407.42 209.981 2405.3 209.981C2401.15 209.981 2397 211.487 2392.85 214.498C2388.7 217.428 2385.37 220.683 2382.84 224.264V312.887L2405.55 317.037L2403.11 329H2344.63L2342.19 317.037L2360.87 312.887V212.667ZM2507.11 253.194C2524.04 261.821 2534.74 269.226 2539.21 275.411C2543.77 281.515 2546.05 288.351 2546.05 295.919C2546.05 306.498 2541.37 315.125 2532.01 321.798C2522.74 328.39 2510.41 331.686 2495.03 331.686C2486.72 331.686 2478.95 330.831 2471.71 329.122C2464.47 327.413 2458.57 325.419 2454.01 323.141L2452.79 293.844L2466.09 291.402L2473.17 314.229C2476.35 315.206 2479.85 315.938 2483.67 316.427C2487.5 316.834 2491.36 317.037 2495.27 317.037C2499.66 317.037 2504.02 316.793 2508.33 316.305C2512.73 315.735 2517.16 314.84 2521.64 313.619C2522.45 311.91 2523.06 309.998 2523.47 307.882C2523.87 305.685 2524.08 303.569 2524.08 301.534C2524.08 295.756 2521.47 290.589 2516.27 286.031C2511.06 281.393 2500.97 275.126 2485.99 267.232C2472.48 260.152 2463.41 253.805 2458.77 248.189C2454.13 242.574 2451.81 236.145 2451.81 228.902C2451.81 218.73 2456.08 210.348 2464.63 203.756C2473.17 197.164 2485.3 193.868 2501.01 193.868C2508.33 193.868 2515.45 194.641 2522.37 196.188C2529.29 197.652 2535.23 199.646 2540.19 202.169L2541.29 231.588L2527.98 234.029L2520.78 210.958C2517.53 210.063 2514.07 209.452 2510.41 209.127C2506.74 208.72 2503.37 208.517 2500.27 208.517C2495.96 208.517 2491.77 208.842 2487.7 209.493C2483.63 210.063 2479.89 210.877 2476.47 211.935C2475.74 213.237 2475.09 214.946 2474.52 217.062C2474.03 219.096 2473.79 221.212 2473.79 223.409C2473.79 227.804 2475.62 231.954 2479.28 235.86C2483.02 239.685 2492.3 245.463 2507.11 253.194ZM2587.43 212.667L2568.76 208.517L2571.2 196.554L2609.41 193.868V312.887L2628.08 317.037L2625.64 329H2571.2L2568.76 317.037L2587.43 312.887V212.667ZM2581.7 157.979C2581.7 153.422 2582.88 149.475 2585.24 146.139C2587.68 142.721 2590.48 141.012 2593.66 141.012C2598.3 141.012 2602.24 142.192 2605.5 144.552C2608.84 146.912 2610.5 149.76 2610.5 153.097C2610.5 157.654 2609.28 161.601 2606.84 164.938C2604.48 168.274 2601.71 169.942 2598.54 169.942C2593.98 169.942 2590.04 168.762 2586.7 166.402C2583.36 164.042 2581.7 161.235 2581.7 157.979ZM2716.83 196.554L2719.27 208.639L2681.43 212.545V291.28C2681.43 299.907 2682.69 306.376 2685.21 310.689C2687.82 314.921 2693.02 317.037 2700.84 317.037C2703.44 317.037 2706.33 316.63 2709.5 315.816C2712.68 315.003 2715.97 313.823 2719.39 312.276V323.751C2715.65 326.192 2711.33 328.105 2706.45 329.488C2701.65 330.953 2696.81 331.686 2691.92 331.686C2680.53 331.686 2672.27 328.756 2667.14 322.896C2662.02 317.037 2659.45 308.085 2659.45 296.041V212.545L2639.8 208.639L2642.24 196.554H2659.45L2668.37 160.787L2681.43 163.229V196.554H2716.83ZM2821.81 196.554H2861.48L2863.92 208.517L2852.08 210.836L2808.5 328.756C2801.18 349.02 2793.93 363.424 2786.77 371.969C2779.69 380.514 2770.54 384.786 2759.31 384.786C2754.51 384.786 2749.66 384.176 2744.78 382.955C2739.9 381.734 2735.91 380.432 2732.82 379.049L2737.21 363.058C2741.69 364.685 2746.94 366.109 2752.96 367.33C2758.98 368.632 2764.72 369.283 2770.17 369.283C2773.26 367.167 2776.28 364.075 2779.21 360.006C2782.22 356.018 2784.9 350.769 2787.26 344.259L2737.58 210.836L2725.74 208.517L2728.18 196.554H2773.35L2775.79 208.517L2760.53 210.836L2796.54 312.887H2798.49L2834.62 210.836L2819.37 208.517L2821.81 196.554Z" fill="white"/>
</svg>
